<svg xmlns="http://www.w3.org/2000/svg" viewBox="0 0 150.09 135.27">
  <path fill="#2c3180" d="M147.63 116.18c-2.67 1-17.28 4.44-33.16.46-.69-.2-.35-.58-.13-.76 14.95-13.66 23.23-30.33 23.23-47.22 0-5.75-.88-12-3.63-17.7 0 0 0 .05.05.07-2.75-5.54-11.84-20.81-46.94-20.81-.03 0-.05-.05-.17-.05 0 0 0 .05.05.05-7.8.01-15.91.45-24.27 1.26-.75.03-1.07-.22-.67-1.14C67.96 19.36 75.09 9.97 82.78 3c.46-.52.05-1.02-.28-1.24-4.04-2.7-12.45-2.29-21.01 1.27-5.67 2.4-10.27 5.76-12.98 9.12-5.02 6.68-9.55 14.29-13.47 22.5-.28.66-.84.93-1.11.94-8.8 1.73-17.41 3.69-25.51 5.96-2.58.84-3.33 1.97-3.66 2.59-.67 1.24-1.25 2.54-1.85 3.96-4.07 10-3.81 19.72.44 22.59 1.42.69 2.57-.1 3.37-.51 5.8-2.91 11.93-5.74 18.33-8.46.21-.09.47-.16.43.29-1.91 8.18-2.84 16.11-2.84 23.53 0 38.54 22.47 49.75 45.65 49.75 1.93 0 3.88-.07 5.84-.3-.01 0-.19 0-.45-.04l.45.04c7.13-.73 14.49-2.88 21.57-6.34.47-.18.89-.14 1.1-.11 24.27 5.5 41.18-.84 49.2-5.4 6.12-3.52 4.28-7.99 1.65-6.94ZM97.7 104.85c-.71.63-1.39.09-1.56-.2-3.15-4.81-4.18-9.83-4.59-12.94-.22-1.99-1.28-8.18-12.99-8.18-10.14 0-11.06 8.29-11.18 9.89-.74 8.78 3.79 17.18 9.77 23.5.6.69.18.97-.09 1.07-23.5 7.06-28.09-5.73-28.77-7.97-1.91-5.79-2.31-12.76-2.31-17.78 0-22.84 2.17-50.47 41.28-50.47 5.71 0 21.81-.56 28.54 10.81 8.67 14.28-1.51 36.74-18.12 52.25Z" data-name="Capa 1"/>
</svg>
