<?xml version="1.0" encoding="UTF-8"?>
<svg xmlns="http://www.w3.org/2000/svg" xmlns:xlink="http://www.w3.org/1999/xlink" viewBox="0 0 564.08 241.13">
  <defs>
    <style>
      .cls-1 {
        clip-path: url(#clippath);
      }

      .cls-2 {
        fill: none;
      }

      .cls-2, .cls-3, .cls-4, .cls-5, .cls-6 {
        stroke-width: 0px;
      }

      .cls-7 {
        mix-blend-mode: multiply;
      }

      .cls-8 {
        clip-path: url(#clippath-1);
      }

      .cls-9 {
        clip-path: url(#clippath-2);
      }

      .cls-3 {
        fill: #929497;
      }

      .cls-4 {
        fill: #001689;
      }

      .cls-10 {
        isolation: isolate;
      }

      .cls-5 {
        fill: #a6a8ab;
      }

      .cls-6 {
        fill: #231f20;
      }
    </style>
    <clipPath id="clippath">
      <rect class="cls-2" x="18.9" y="156.95" width="63.98" height="28.02"/>
    </clipPath>
    <clipPath id="clippath-1">
      <rect class="cls-2" x="262.84" y="65.65" width="57.96" height="118.78"/>
    </clipPath>
    <clipPath id="clippath-2">
      <rect class="cls-2" x="194.86" y="52.9" width="194.62" height="33.11"/>
    </clipPath>
  </defs>
  <g class="cls-10">
    <g id="Layer_2" data-name="Layer 2">
      <g id="Capa_1" data-name="Capa 1">
        <g>
          <g>
            <path class="cls-4" d="M356.27,148.45c7.06-.9,13.49-2.63,19.1-5.12,5.7-2.53,10.4-6.1,13.99-10.61,3.65-4.59,5.49-10.63,5.49-17.95s-2.52-13.17-7.48-17.78c-4.94-4.58-11.9-6.91-20.7-6.91-8.1,0-15.51,1.68-22.03,5-6.49,3.31-12.12,7.78-16.73,13.31-4.6,5.51-8.17,11.9-10.61,18.99-2.43,7.07-3.67,14.5-3.67,22.09,0,4.81.7,9.37,2.08,13.56,1.4,4.24,3.61,8.05,6.57,11.3,2.98,3.27,6.84,5.87,11.48,7.72,4.61,1.84,10.18,2.78,16.57,2.78s12.05-.63,17.05-1.88c4.97-1.24,8.87-2.51,11.61-3.76.58-.27.93-.87.86-1.51l-1.67-16.35c-.05-.47-.31-.89-.72-1.13-.41-.24-.9-.28-1.34-.1-7.35,3.02-14.79,4.56-22.12,4.56-11.91,0-17.69-4.48-17.69-13.69v-.89c6.72-.25,13.43-.8,19.97-1.64M341.37,124.57c1.65-3.03,3.61-5.69,5.83-7.92,2.19-2.19,4.74-3.94,7.56-5.2,2.8-1.24,5.79-1.87,8.91-1.87,3.54,0,6.01.73,7.32,2.18,1.37,1.51,2.03,3.15,2.03,5.01,0,4.97-2.69,8.62-8.22,11.16-5.56,2.55-14.5,4.11-26.58,4.63.75-2.82,1.81-5.5,3.16-7.98M443.25,90.42c-6.85,0-13.27.6-19.07,1.78-5.74,1.17-10.92,2.45-15.4,3.79-.51.15-.9.57-1.02,1.08l-20.02,83.59c-.11.44,0,.91.28,1.27.28.36.71.57,1.17.57h20.31c.69,0,1.29-.48,1.45-1.15l16.53-69.71c3.13-.81,6.86-1.21,11.1-1.21,5.15,0,8.6,1.09,10.24,3.25,1.72,2.27,2.55,5.21,2.45,8.7-.11,2.24-.43,4.63-.97,7.09-.56,2.56-1.11,5.05-1.66,7.48l-10.32,43.71c-.11.44,0,.91.28,1.27.28.36.71.57,1.17.57h20.16c.69,0,1.29-.47,1.45-1.15l11.02-45.94c.55-2.75,1.03-5.49,1.43-8.17.4-2.68.6-5.25.6-7.64,0-8.81-2.55-15.95-7.59-21.22-5.05-5.29-13-7.97-23.6-7.97M79.62,157c-.42-.23-.92-.24-1.34-.04-3.25,1.52-7.23,3.04-11.84,4.52-4.5,1.45-10.07,2.18-16.56,2.18-8.2,0-14.48-2.33-18.67-6.94-4.23-4.64-6.37-12.02-6.37-21.94,0-6.49,1.01-12.96,3.01-19.23,1.99-6.25,4.94-11.9,8.77-16.8,3.81-4.88,8.45-8.87,13.82-11.88,5.31-2.97,11.41-4.48,18.12-4.48,4.95,0,9.44.57,13.35,1.69,3.91,1.13,7.64,2.73,11.08,4.77.36.21.79.27,1.2.14.4-.12.73-.41.91-.79l8.01-16.85c.34-.71.07-1.55-.61-1.94-3.97-2.27-8.65-4.22-13.91-5.81-5.29-1.59-11.58-2.4-18.7-2.4-10.86,0-20.74,2.16-29.36,6.41-8.59,4.24-16,9.95-22,16.97-5.99,7.01-10.63,15.11-13.79,24.08-3.16,8.96-4.76,18.3-4.76,27.78,0,7.37,1.07,14.11,3.17,20.02,2.12,5.96,5.23,11.13,9.25,15.37,4.03,4.26,8.98,7.55,14.72,9.79,5.71,2.23,12.29,3.35,19.56,3.35,8.21,0,15.31-.8,21.08-2.39,5.75-1.58,10.56-3.36,14.3-5.29.56-.29.88-.91.79-1.54l-2.5-17.69c-.07-.47-.35-.88-.77-1.1M170.97,124.78c0-10.34-2.88-18.79-8.56-25.11-5.72-6.36-14.07-9.59-24.8-9.59-8.69,0-16.35,1.92-22.78,5.71-6.38,3.76-11.75,8.61-15.97,14.42-4.2,5.78-7.36,12.28-9.4,19.31-2.03,7-3.06,13.88-3.06,20.44,0,10.34,2.88,18.82,8.55,25.18,5.72,6.42,14.06,9.68,24.81,9.68,8.79,0,16.54-1.92,23.02-5.71,6.44-3.76,11.81-8.62,15.98-14.43,4.14-5.79,7.25-12.29,9.23-19.32,1.98-7,2.98-13.93,2.98-20.59M146.17,139.75c-1.18,4.51-2.9,8.68-5.09,12.38-2.17,3.65-4.9,6.7-8.11,9.07-3.12,2.3-6.72,3.46-10.71,3.46-4.85,0-8.1-1.36-9.93-4.16-1.94-2.96-2.93-7.12-2.93-12.36,0-4.19.6-8.58,1.78-13.05,1.18-4.46,2.9-8.63,5.1-12.39,2.17-3.7,4.89-6.78,8.11-9.15,3.11-2.3,6.72-3.46,10.71-3.46,4.84,0,8.09,1.39,9.92,4.24,1.95,3.03,2.93,7.22,2.93,12.46,0,4.07-.6,8.44-1.79,12.97M221.21,90.42c-6.85,0-13.27.6-19.07,1.78-5.74,1.17-10.92,2.45-15.4,3.79-.51.15-.9.57-1.02,1.08l-20.02,83.59c-.11.44,0,.91.28,1.27.28.36.72.57,1.17.57h20.31c.69,0,1.29-.48,1.45-1.15l16.53-69.71c3.13-.81,6.86-1.21,11.1-1.21,5.15,0,8.6,1.09,10.24,3.25,1.72,2.27,2.55,5.21,2.45,8.7-.11,2.24-.43,4.63-.97,7.09-.56,2.56-1.11,5.05-1.66,7.48l-10.32,43.71c-.1.44,0,.91.28,1.27.28.36.71.57,1.17.57h20.16c.69,0,1.29-.47,1.45-1.15l11.02-45.94c.55-2.77,1.03-5.51,1.43-8.17.4-2.68.6-5.25.6-7.64,0-8.81-2.55-15.95-7.59-21.22-5.05-5.29-12.99-7.97-23.6-7.97M542.53,92.82c-.28-.36-.71-.57-1.17-.57h-26.66l5.92-24.52c.12-.49-.01-1-.35-1.36-.34-.37-.83-.54-1.33-.46l-21.02,3.34c-.6.09-1.08.54-1.22,1.13l-17.02,71.74c-.79,3.27-1.39,6.38-1.78,9.24-.4,2.88-.6,5.73-.6,8.46,0,7.6,2.22,13.71,6.6,18.15,4.39,4.45,11.65,6.7,21.59,6.7,5.33,0,10.06-.52,14.05-1.55,3.95-1.02,7.28-2.11,9.9-3.25.59-.26.95-.87.89-1.51l-1.5-16.18c-.05-.47-.31-.9-.72-1.14-.41-.24-.91-.28-1.35-.09-2.04.86-4.45,1.68-7.16,2.44-2.64.74-5.42,1.11-8.27,1.11-2.59,0-4.63-.28-6.06-.82-1.37-.52-2.41-1.17-3.08-1.93-.67-.76-1.1-1.63-1.33-2.67-.25-1.16-.38-2.37-.38-3.6s.1-2.7.3-4.22c.21-1.57.58-3.58,1.09-5.93l8.07-33.4h27.41c.69,0,1.29-.47,1.45-1.14l4.01-16.68c.11-.44,0-.91-.28-1.27"/>
            <path class="cls-4" d="M551.62,92.44l.04-10.61,4.33.02c1.08,0,1.88.1,2.37.29.49.19.88.54,1.18,1.02.29.49.44,1.05.44,1.67,0,.8-.23,1.45-.68,1.97-.46.52-1.12.85-2.02.98.45.27.81.57,1.1.9.29.32.67.9,1.15,1.73l1.24,2.06h-2.47s-1.46-2.32-1.46-2.32c-.53-.83-.89-1.34-1.09-1.56-.19-.22-.4-.37-.62-.45-.21-.08-.56-.12-1.04-.12h-.42s-.02,4.43-.02,4.43h-2.06ZM553.7,86.32h1.52c.98,0,1.59-.04,1.84-.12.25-.08.44-.24.58-.45.14-.2.21-.47.21-.79,0-.35-.09-.64-.27-.86-.19-.21-.45-.35-.78-.42-.17-.02-.67-.04-1.5-.04h-1.6s0,2.68,0,2.68Z"/>
            <path class="cls-4" d="M547.34,87.4c0,4.81,3.75,8.72,8.37,8.72s8.36-3.91,8.36-8.72-3.75-8.7-8.36-8.7-8.37,3.9-8.37,8.7M548.3,87.4c0-4.25,3.32-7.7,7.42-7.7s7.41,3.45,7.41,7.7-3.32,7.72-7.41,7.72-7.42-3.46-7.42-7.72"/>
            <path class="cls-6" d="M113.18,161.43c-.38-.38-.74-.79-1.04-1.25-1.93-2.94-2.91-7.08-2.91-12.29,0-4.17.6-8.53,1.77-12.97,1.18-4.43,2.88-8.58,5.07-12.32,2.15-3.68,4.86-6.74,8.06-9.09,3.1-2.28,6.68-3.44,10.65-3.44,2.15,0,3.97.29,5.51.85-1.92-1.92-4.79-2.88-8.77-2.88s-7.55,1.16-10.65,3.44c-3.2,2.36-5.91,5.41-8.06,9.09-2.19,3.74-3.9,7.88-5.07,12.32-1.18,4.44-1.78,8.8-1.78,12.97,0,5.21.98,9.35,2.91,12.29,1,1.52,2.43,2.6,4.3,3.28"/>
            <path class="cls-6" d="M171.07,125.05c0-10.28-2.86-18.68-8.51-24.96-2.12-2.35-4.59-4.27-7.42-5.76,1.51,1.09,2.91,2.33,4.16,3.73,5.64,6.28,8.51,14.68,8.51,24.96,0,6.62-1,13.51-2.96,20.47-1.97,6.99-5.06,13.45-9.18,19.2-4.14,5.78-9.49,10.61-15.88,14.35-6.45,3.77-14.15,5.68-22.89,5.68-6.66,0-12.39-1.26-17.14-3.75,5.3,3.83,12.14,5.78,20.4,5.78,8.74,0,16.44-1.91,22.89-5.68,6.4-3.74,11.74-8.57,15.88-14.35,4.12-5.75,7.21-12.21,9.18-19.2,1.96-6.96,2.96-13.85,2.96-20.47"/>
            <g class="cls-7">
              <g class="cls-1">
                <path class="cls-6" d="M79.62,157.13c-.41-.22-.91-.24-1.34-.04-.31.14-.65.29-.97.43l2.3,16.26c.09.63-.23,1.24-.79,1.53-3.72,1.92-8.51,3.69-14.22,5.25-5.74,1.58-12.8,2.38-20.96,2.38-7.23,0-13.77-1.12-19.45-3.34-1.85-.72-3.62-1.57-5.3-2.51,2.61,1.81,5.46,3.33,8.56,4.54,5.68,2.21,12.22,3.34,19.45,3.34,8.17,0,15.22-.8,20.96-2.37,5.72-1.57,10.5-3.34,14.22-5.25.56-.29.88-.9.79-1.53l-2.49-17.58c-.06-.47-.35-.87-.76-1.1"/>
              </g>
            </g>
            <path class="cls-6" d="M510.89,92.59h3.75l5.95-24.37c.12-.48-.01-.99-.35-1.36-.33-.37-.83-.54-1.32-.46l-1.7.27-6.32,25.92Z"/>
            <path class="cls-6" d="M360.54,107.92c-3.09,0-6.07.63-8.85,1.86-2.8,1.25-5.33,2.98-7.51,5.17-2.21,2.21-4.16,4.86-5.8,7.87-1.34,2.47-2.4,5.13-3.14,7.93,1.35-.06,2.66-.13,3.93-.22.66-1.99,1.48-3.89,2.47-5.69,1.64-3.01,3.59-5.66,5.8-7.87,2.18-2.18,4.71-3.92,7.51-5.17,2.78-1.24,5.76-1.86,8.85-1.86,1.68,0,3.11.17,4.3.5-.1-.12-.17-.24-.28-.36-1.3-1.44-3.75-2.17-7.28-2.17"/>
            <path class="cls-6" d="M384.11,95.4c4.94,4.58,7.44,10.53,7.44,17.67s-1.84,13.28-5.46,17.84c-3.57,4.49-8.25,8.03-13.91,10.55-5.58,2.48-11.97,4.19-18.99,5.09-6.5.83-13.17,1.38-19.85,1.63v.88c0,5.84,2.35,9.76,7.12,11.84-2.58-2.25-3.87-5.5-3.87-9.81v-.88c6.68-.25,13.35-.79,19.85-1.63,7.02-.9,13.41-2.61,18.99-5.09,5.66-2.52,10.35-6.07,13.91-10.55,3.63-4.56,5.46-10.57,5.46-17.84s-2.5-13.09-7.44-17.67c-1.48-1.38-3.17-2.52-5.02-3.49.61.46,1.2.94,1.76,1.46"/>
            <path class="cls-6" d="M99.72,69.55l-7.96,16.88c-.18.38-.51.67-.91.79-.4.12-.83.07-1.19-.14-3.42-2.04-7.13-3.65-11.01-4.78-3.89-1.13-8.35-1.7-13.27-1.7-6.67,0-12.74,1.51-18.02,4.49-5.33,3.01-9.95,7.01-13.74,11.9-3.8,4.91-6.73,10.57-8.71,16.83-1.99,6.28-3,12.76-3,19.27,0,9.93,2.13,17.32,6.33,21.97,1.62,1.79,3.55,3.23,5.78,4.33-.9-.69-1.76-1.44-2.53-2.28-4.2-4.65-6.33-12.04-6.33-21.97,0-6.5,1.01-12.99,3-19.27,1.98-6.26,4.91-11.92,8.71-16.83,3.78-4.89,8.4-8.89,13.74-11.9,5.28-2.98,11.34-4.49,18.02-4.49,4.92,0,9.39.57,13.27,1.7,3.89,1.13,7.59,2.74,11.02,4.78.36.21.79.27,1.19.14.4-.12.73-.41.91-.79l7.96-16.88c.33-.71.07-1.55-.61-1.94-.86-.5-1.78-.97-2.71-1.44.22.41.26.89.05,1.34"/>
            <path class="cls-6" d="M466.76,98.81c-1.64-1.71-3.61-3.12-5.85-4.28.93.7,1.81,1.43,2.59,2.25,5.01,5.24,7.54,12.34,7.54,21.1,0,2.38-.2,4.93-.6,7.6-.4,2.66-.88,5.39-1.42,8.12l-10.96,45.67c-.16.67-.76,1.14-1.44,1.14h-18.19l-.05.2c-.11.44,0,.91.28,1.26.28.36.71.56,1.16.56h20.05c.69,0,1.28-.47,1.44-1.14l10.96-45.67c.55-2.73,1.02-5.46,1.42-8.12.4-2.66.6-5.22.6-7.6,0-8.76-2.54-15.86-7.54-21.1"/>
            <path class="cls-6" d="M528.04,160.97c-.41-.24-.9-.28-1.34-.09-.35.15-.72.29-1.09.43l1.38,14.86c.06.64-.3,1.24-.89,1.5-2.6,1.13-5.91,2.22-9.84,3.23-3.97,1.02-8.67,1.54-13.97,1.54-6.85,0-12.39-1.1-16.61-3.24,4.44,3.49,11.1,5.27,19.87,5.27,5.3,0,10-.52,13.97-1.54,3.93-1.01,7.24-2.1,9.84-3.23.59-.26.94-.86.89-1.5l-1.49-16.09c-.04-.47-.31-.89-.72-1.14"/>
            <path class="cls-6" d="M542.37,93.15c-.28-.36-.71-.57-1.17-.57h-1.86l-3.94,16.39c-.16.67-.76,1.14-1.44,1.14h-27.25l-8.02,33.2c-.51,2.34-.88,4.34-1.09,5.9-.2,1.52-.3,2.93-.3,4.2s.13,2.43.38,3.58c.22,1.03.65,1.9,1.32,2.65.67.75,1.7,1.4,3.06,1.92.04.02.1.03.14.04-.63-.74-1.05-1.58-1.27-2.58-.25-1.15-.38-2.36-.38-3.58s.1-2.69.3-4.2c.21-1.56.57-3.56,1.09-5.9l8.02-33.2h27.25c.69,0,1.28-.47,1.44-1.14l3.98-16.59c.11-.44,0-.91-.28-1.27"/>
            <path class="cls-6" d="M223.41,111.69c-1.72-1.94-5.04-2.93-9.91-2.93-4.21,0-7.92.4-11.03,1.21l-16.43,69.3c-.16.67-.76,1.14-1.44,1.14h-18.33l-.05.2c-.11.44,0,.91.28,1.26.28.36.71.57,1.16.57h20.19c.69,0,1.29-.47,1.44-1.14l16.43-69.3c3.11-.8,6.82-1.21,11.03-1.21,2.7,0,4.91.31,6.65.91"/>
            <path class="cls-6" d="M445.3,111.69c-1.72-1.94-5.03-2.93-9.91-2.93-4.21,0-7.92.4-11.03,1.21l-16.43,69.3c-.16.67-.76,1.14-1.44,1.14h-18.33l-.05.2c-.11.44,0,.91.28,1.26.28.36.71.57,1.16.57h20.19c.69,0,1.29-.47,1.44-1.14l16.43-69.3c3.11-.8,6.82-1.21,11.03-1.21,2.7,0,4.91.31,6.65.91"/>
            <path class="cls-6" d="M239.02,94.53c.93.7,1.81,1.43,2.6,2.26,5,5.24,7.54,12.34,7.54,21.09,0,2.38-.2,4.94-.6,7.6-.39,2.64-.87,5.37-1.42,8.12l-10.96,45.67c-.16.67-.76,1.14-1.44,1.14h-18.19l-.05.2c-.1.44,0,.91.28,1.26.28.36.71.56,1.16.56h20.05c.69,0,1.28-.47,1.44-1.14l10.96-45.67c.55-2.75,1.03-5.48,1.42-8.12.39-2.66.6-5.22.6-7.6,0-8.76-2.54-15.86-7.54-21.1-1.64-1.71-3.61-3.12-5.85-4.28"/>
            <path class="cls-6" d="M377.5,160.27c-.4-.24-.9-.28-1.33-.1-.36.15-.73.28-1.09.42l1.53,15.03c.06.63-.28,1.23-.86,1.5-2.72,1.25-6.6,2.51-11.54,3.74-4.97,1.24-10.67,1.87-16.95,1.87s-11.89-.93-16.47-2.76c-1.3-.52-2.53-1.11-3.71-1.74,2.07,1.48,4.39,2.74,6.97,3.77,4.58,1.83,10.12,2.76,16.47,2.76s11.98-.63,16.95-1.87c4.94-1.23,8.82-2.49,11.54-3.74.58-.27.92-.87.86-1.5l-1.66-16.26c-.05-.47-.31-.88-.71-1.12"/>
            <path class="cls-4" d="M306.06,160.8c-.41-.24-.91-.28-1.35-.09-2.04.86-4.45,1.68-7.16,2.44-2.64.74-5.42,1.11-8.27,1.11-2.59,0-4.63-.28-6.06-.82-1.37-.52-2.41-1.17-3.08-1.93-.67-.76-1.11-1.63-1.33-2.67-.25-1.16-.38-2.38-.38-3.6s.1-2.69.31-4.23c.21-1.56.58-3.57,1.09-5.93l8.07-33.39h27.41c.69,0,1.29-.47,1.45-1.14l4-16.68c.11-.44,0-.91-.28-1.27-.28-.36-.72-.57-1.17-.57h-26.67l5.93-24.52c.12-.48-.01-1-.35-1.36-.34-.37-.83-.54-1.33-.46l-21.02,3.34c-.6.09-1.08.54-1.22,1.13l-17.02,71.74c-.79,3.26-1.39,6.37-1.78,9.24-.4,2.88-.6,5.73-.6,8.46,0,7.6,2.22,13.71,6.6,18.15,4.39,4.44,11.65,6.7,21.59,6.7,5.33,0,10.06-.52,14.05-1.55,3.95-1.02,7.28-2.11,9.9-3.25.59-.26.95-.86.89-1.51l-1.5-16.18c-.04-.47-.31-.9-.72-1.14"/>
            <g class="cls-7">
              <g class="cls-8">
                <path class="cls-5" d="M306.06,160.8c-.41-.24-.91-.28-1.35-.1-.28.12-.59.24-.88.35l1.38,14.9c.06.64-.3,1.25-.89,1.51-2.62,1.14-5.95,2.23-9.9,3.25-3.99,1.03-8.72,1.55-14.05,1.55-7.32,0-13.18-1.23-17.52-3.66,4.45,3.85,11.35,5.83,20.59,5.83,5.33,0,10.06-.52,14.05-1.55,3.95-1.02,7.28-2.11,9.9-3.25.59-.26.95-.86.89-1.51l-1.5-16.18c-.04-.47-.31-.9-.72-1.14"/>
                <path class="cls-5" d="M289.06,92.02h3.59l5.92-24.52c.12-.49-.01-1-.35-1.36-.34-.37-.83-.54-1.33-.46l-1.53.24-6.3,26.1Z"/>
                <path class="cls-5" d="M320.48,92.59c-.28-.36-.71-.57-1.17-.57h-1.7l-3.93,16.36c-.16.67-.76,1.15-1.45,1.15h-27.41l-8.07,33.39c-.51,2.36-.88,4.37-1.09,5.93-.2,1.53-.31,2.95-.31,4.23s.13,2.44.38,3.6c.22,1.04.66,1.91,1.33,2.67.62.7,1.57,1.3,2.79,1.8-.51-.67-.86-1.42-1.05-2.3-.25-1.16-.38-2.38-.38-3.6s.1-2.69.31-4.22c.21-1.56.58-3.57,1.09-5.93l8.07-33.4h27.41c.69,0,1.29-.47,1.45-1.14l4.01-16.68c.11-.44,0-.91-.28-1.27"/>
              </g>
            </g>
            <path class="cls-4" d="M290.56,55.14c77.04,2.3,98.93,30.87,98.93,30.87,0,0-21.94-49.93-94.35-50.1-74.64-.17-100.28,46.89-100.28,46.89,0,0,36.87-29.43,95.7-27.66"/>
            <g class="cls-7">
              <g class="cls-9">
                <path class="cls-5" d="M360.82,54.42c14.97,11.03,22.37,23.22,24.73,27.67,2.77,2.39,3.94,3.92,3.94,3.92,0,0-7.62-17.32-28.68-31.6"/>
                <path class="cls-5" d="M287.49,52.98c-41.92-1.27-72.67,13.31-86.89,21.79-3.96,4.78-5.73,8.03-5.73,8.03,0,0,36.87-29.43,95.7-27.66,49.16,1.47,75.86,13.63,88.75,22.24-11.46-8.57-38.36-22.81-91.82-24.41"/>
              </g>
            </g>
            <path class="cls-4" d="M175.47,72.34c.4-.56.69-1.05.86-1.49.17-.43.25-.82.25-1.15,0-.34-.08-.63-.24-.87-.16-.24-.37-.46-.65-.66-.58-.42-1.25-.49-2.02-.22-.77.27-1.86.9-3.25,1.91-.62.43-1.27.84-1.95,1.23-.68.39-1.38.66-2.11.83-.73.17-1.48.19-2.26.07-.78-.12-1.57-.48-2.38-1.06-.81-.59-1.44-1.27-1.87-2.05-.43-.78-.67-1.61-.73-2.5-.05-.89.09-1.82.42-2.8.33-.97.85-1.96,1.58-2.96.86-1.19,1.72-2.12,2.6-2.8.88-.68,1.67-1.19,2.38-1.53l2.3,3.4c-.61.31-1.23.69-1.86,1.15-.63.46-1.25,1.11-1.86,1.96-.68.95-1.05,1.73-1.08,2.33-.04.61.22,1.1.76,1.49.32.23.65.35.98.36.33,0,.69-.07,1.06-.22.38-.15.77-.36,1.18-.62.41-.26.85-.56,1.32-.89,1-.67,1.91-1.23,2.73-1.66.82-.44,1.61-.72,2.38-.86.77-.13,1.52-.09,2.28.12.75.21,1.55.62,2.4,1.23,1.64,1.19,2.5,2.68,2.58,4.49.07,1.81-.73,3.87-2.4,6.19-.56.78-1.12,1.45-1.66,2.01-.55.56-1.06,1.03-1.54,1.42-.49.39-.93.7-1.33.93-.4.24-.76.43-1.06.56l-2.35-3.39c.67-.32,1.39-.78,2.18-1.38.79-.61,1.58-1.47,2.39-2.59"/>
            <path class="cls-4" d="M177.53,49.25c.96-.99,1.87-1.71,2.73-2.15.86-.44,1.7-.66,2.5-.65.81,0,1.59.22,2.35.63.76.42,1.51.98,2.25,1.69l6.99,6.75c-.36.58-.88,1.37-1.57,2.37-.68.99-1.61,2.1-2.79,3.32-.74.77-1.48,1.4-2.22,1.89-.74.49-1.48.82-2.22.97-.74.15-1.48.11-2.21-.13-.73-.24-1.45-.71-2.18-1.4-.69-.67-1.14-1.37-1.36-2.12-.21-.74-.24-1.49-.07-2.23.16-.74.47-1.48.93-2.2.45-.72.99-1.41,1.62-2.06.42-.44.81-.81,1.18-1.11.36-.3.68-.53.94-.68l-.32-.3c-.57-.55-1.2-.82-1.88-.81-.68.01-1.43.45-2.26,1.3-.55.57-1.06,1.18-1.51,1.81-.46.64-.8,1.23-1.04,1.78l-3.12-2.18c.13-.25.3-.56.52-.92.22-.36.46-.74.75-1.13.28-.4.59-.8.92-1.23.33-.42.69-.82,1.07-1.22M187.63,58.47c.32-.33.62-.65.89-.97.28-.32.48-.58.63-.79l-2.55-2.46c-.16.11-.39.28-.68.52-.29.24-.55.47-.76.7-.3.32-.57.63-.8.95-.23.32-.39.63-.49.94-.1.31-.11.62-.05.91.06.3.23.57.5.83.53.51,1.06.68,1.61.53.54-.16,1.11-.54,1.71-1.16"/>
            <path class="cls-4" d="M204.25,37.47c.81,1.03,1.4,2.09,1.76,3.17.35,1.08.48,2.14.37,3.18-.11,1.04-.46,2.06-1.04,3.04-.58.98-1.41,1.89-2.48,2.73-.44.35-.92.69-1.44,1.03-.52.34-1.04.66-1.56.97-.52.3-1.03.58-1.53.82-.5.25-.95.45-1.36.61l-14.26-18.11,3.2-3.48,5.08,6.45c.27-.5.59-.98.95-1.43.37-.45.8-.87,1.31-1.27.92-.72,1.86-1.2,2.82-1.44.96-.24,1.91-.25,2.85-.03.94.22,1.86.64,2.76,1.28.9.64,1.75,1.46,2.55,2.48M200.43,40.32c-1.86-2.36-3.67-2.86-5.41-1.49-.38.3-.71.64-1,1.03-.29.39-.49.75-.61,1.08l5.26,6.68c.21-.11.46-.26.76-.46.3-.2.61-.42.94-.68,1-.79,1.48-1.73,1.45-2.82-.03-1.09-.5-2.2-1.39-3.34"/>
            <path class="cls-4" d="M207.02,35.76c-.74-1.26-1.19-2.48-1.36-3.66-.17-1.17-.12-2.26.14-3.26.26-1,.71-1.9,1.34-2.71.63-.8,1.38-1.46,2.25-1.97,2.02-1.18,3.98-1.5,5.87-.95,1.9.55,3.55,2.03,4.95,4.43.14.24.28.5.42.79.15.29.27.55.38.78l-9.15,5.35c.58.78,1.35,1.21,2.32,1.29.97.09,2.03-.21,3.19-.88.74-.43,1.43-.92,2.06-1.48.63-.55,1.12-1.06,1.45-1.52l2.46,2.96c-.15.24-.38.51-.67.83-.3.32-.64.65-1.04.99-.39.34-.83.68-1.3,1.03-.47.35-.96.67-1.47.97-1.28.75-2.51,1.21-3.68,1.39-1.17.18-2.26.12-3.26-.18-1.01-.29-1.92-.81-2.75-1.53-.83-.73-1.54-1.62-2.16-2.66M215.6,28.67c-.22-.33-.47-.63-.76-.9-.29-.27-.61-.47-.97-.6-.35-.13-.74-.19-1.15-.16-.41.02-.85.17-1.32.44-.45.27-.8.57-1.03.91-.24.34-.39.71-.46,1.08-.07.38-.06.77.01,1.17.08.4.19.79.34,1.16l5.33-3.12Z"/>
            <path class="cls-4" d="M228.82,23.91c-.42-1.11-.64-2.23-.65-3.36-.01-1.12.18-2.18.59-3.18.4-.99,1.01-1.89,1.83-2.69.81-.8,1.85-1.44,3.1-1.91.82-.31,1.6-.52,2.34-.64.74-.11,1.48-.15,2.23-.13l.42,3.83c-.47,0-.97.03-1.51.1-.53.07-1.1.22-1.71.45-1.29.49-2.1,1.26-2.43,2.3-.33,1.04-.25,2.22.25,3.53.53,1.39,1.23,2.35,2.12,2.88.89.54,2.07.52,3.56-.04.53-.2,1.08-.46,1.64-.79.57-.33,1.07-.7,1.49-1.1l1.97,3.34c-.43.41-.99.83-1.69,1.28-.7.44-1.51.84-2.43,1.19-1.41.53-2.7.78-3.88.75-1.18-.03-2.23-.29-3.16-.76-.93-.47-1.73-1.15-2.41-2.02-.68-.87-1.24-1.88-1.67-3.04"/>
            <path class="cls-4" d="M258.81,14.5c.32,1.26.43,2.45.33,3.59-.1,1.14-.4,2.16-.9,3.08-.5.91-1.18,1.7-2.04,2.35-.86.65-1.89,1.13-3.08,1.43-1.18.3-2.3.37-3.36.21-1.07-.16-2.04-.52-2.91-1.09-.88-.56-1.64-1.32-2.29-2.26-.65-.94-1.14-2.05-1.46-3.3-.32-1.26-.41-2.45-.28-3.58.13-1.13.45-2.15.97-3.06.51-.91,1.2-1.69,2.06-2.34.86-.65,1.85-1.12,2.99-1.41,1.15-.29,2.27-.36,3.33-.2,1.06.16,2.04.52,2.91,1.07.87.55,1.64,1.3,2.28,2.23.65.93,1.13,2.03,1.45,3.29M251.22,1.84l-3.92,5.5-2.55-1.32,3.04-6.02,3.43,1.84ZM254.19,15.68c-.36-1.4-.91-2.43-1.68-3.08-.76-.66-1.66-.86-2.69-.59-1.03.26-1.73.87-2.09,1.81-.36.95-.37,2.12,0,3.51.35,1.4.92,2.43,1.7,3.11.77.67,1.68.88,2.71.62,1.03-.26,1.72-.88,2.07-1.84.35-.96.34-2.14-.01-3.54"/>
            <path class="cls-4" d="M271.75,12.17c-.16-1.5-.46-2.54-.91-3.12-.45-.58-1.14-.83-2.08-.73-.29.03-.59.08-.9.14-.31.06-.61.13-.89.2l1.34,12.66-4.64.49-1.68-15.84c.38-.15.84-.3,1.35-.47.52-.17,1.07-.33,1.65-.49.58-.16,1.18-.29,1.8-.41.62-.12,1.23-.21,1.83-.27,1.19-.13,2.16-.08,2.93.15.77.22,1.42.52,1.94.88.61-.55,1.34-1,2.17-1.36.83-.36,1.61-.58,2.34-.66,1.31-.14,2.41-.07,3.29.2.88.28,1.61.72,2.18,1.33.57.61,1,1.37,1.28,2.26.28.9.49,1.9.6,3.03l.98,9.26-4.65.49-.92-8.7c-.16-1.5-.46-2.54-.91-3.12-.45-.58-1.14-.82-2.08-.73-.25.03-.59.13-1.02.3-.44.17-.79.37-1.06.58.2.46.34.96.44,1.48.1.52.18,1.09.24,1.69l.95,8.95-4.65.49-.92-8.7Z"/>
            <path class="cls-4" d="M305.51,11.6c-.03,1.3-.24,2.48-.64,3.55-.4,1.07-.96,1.98-1.69,2.73-.73.75-1.59,1.32-2.59,1.72-1,.4-2.12.58-3.35.56-1.21-.03-2.31-.26-3.29-.69-.99-.44-1.82-1.05-2.52-1.82-.7-.78-1.23-1.71-1.61-2.79-.38-1.09-.55-2.28-.52-3.57.03-1.29.26-2.47.68-3.53.43-1.06,1.01-1.95,1.75-2.69.74-.74,1.61-1.3,2.61-1.7,1-.4,2.09-.58,3.26-.56,1.19.02,2.28.26,3.26.69.99.44,1.82,1.04,2.52,1.81.69.77,1.23,1.69,1.61,2.76.38,1.07.55,2.26.52,3.55M300.75,11.51c.03-1.44-.23-2.58-.79-3.42-.56-.84-1.37-1.27-2.44-1.29-1.07-.02-1.9.37-2.5,1.19-.6.81-.92,1.94-.95,3.38-.03,1.44.24,2.59.81,3.45.57.86,1.39,1.3,2.45,1.32,1.06.02,1.89-.39,2.49-1.22.59-.83.9-1.97.93-3.42"/>
            <path class="cls-4" d="M314.75,12.33c.2-1.18.57-2.25,1.13-3.23.56-.98,1.26-1.79,2.11-2.45.85-.65,1.83-1.12,2.94-1.4,1.11-.28,2.32-.31,3.64-.09.86.14,1.64.35,2.34.63.7.28,1.36.61,1.99,1.02l-1.57,3.52c-.4-.24-.86-.46-1.35-.67-.49-.21-1.06-.37-1.7-.47-1.36-.23-2.45.03-3.26.76-.81.73-1.33,1.79-1.56,3.17-.24,1.46-.12,2.65.38,3.56.5.91,1.53,1.49,3.09,1.76.56.09,1.16.14,1.82.14.66,0,1.27-.06,1.85-.2l.02,3.88c-.57.14-1.28.22-2.11.25-.83.03-1.73-.04-2.7-.2-1.48-.25-2.73-.68-3.72-1.3-1-.62-1.78-1.37-2.34-2.25-.57-.88-.92-1.86-1.06-2.96-.15-1.09-.12-2.25.09-3.47"/>
            <path class="cls-4" d="M342.71,26.58c-.83,0-1.87-.08-3.13-.23-1.26-.16-2.55-.43-3.88-.81-1.35-.39-2.42-.89-3.2-1.51-.79-.62-1.35-1.33-1.68-2.13-.33-.8-.48-1.69-.44-2.66.04-.97.22-1.99.53-3.08l2.55-8.83,4.49,1.29-2.39,8.29c-.42,1.45-.53,2.55-.33,3.3.2.75.82,1.28,1.86,1.58.32.09.67.18,1.04.25.37.07.7.13.99.17l3.53-12.23,4.49,1.3-4.42,15.3Z"/>
            <path class="cls-4" d="M350.52,30.3l-4.35-1.72,6.06-15.34,4.35,1.72-6.06,15.34ZM358.73,10.69c-.32.8-.82,1.32-1.52,1.58-.7.25-1.39.24-2.09-.03-.7-.28-1.22-.75-1.55-1.41-.33-.66-.34-1.39-.03-2.19.32-.8.82-1.32,1.52-1.58.69-.25,1.39-.24,2.09.03.7.28,1.22.75,1.55,1.41.33.66.34,1.39.03,2.19"/>
            <path class="cls-4" d="M367.3,37.87c-.43-.08-.91-.19-1.45-.34-.54-.15-1.09-.32-1.66-.52-.57-.2-1.14-.42-1.71-.65-.57-.24-1.11-.48-1.61-.74-1.21-.62-2.19-1.36-2.96-2.2-.77-.84-1.3-1.76-1.61-2.76-.31-.99-.39-2.05-.25-3.17.14-1.12.51-2.26,1.12-3.43.61-1.19,1.32-2.18,2.11-2.99.79-.8,1.64-1.39,2.54-1.77.9-.38,1.85-.54,2.84-.47.99.07,2.01.37,3.05.9.58.3,1.06.62,1.46.97.4.35.78.74,1.13,1.19l3.43-6.63,4.5,1.48-10.93,21.14ZM361.52,26.06c-.66,1.28-.91,2.46-.73,3.54.17,1.08.82,1.91,1.96,2.5.37.19.72.35,1.05.49.33.14.61.24.83.31l3.9-7.55c-.17-.3-.44-.62-.8-.94-.36-.33-.75-.6-1.18-.82-1.97-1.02-3.64-.19-5.03,2.49"/>
            <path class="cls-4" d="M384.82,29.9c1.13.79,1.98,1.59,2.55,2.37.57.79.91,1.58,1.03,2.38.11.8.03,1.6-.27,2.42-.29.82-.74,1.64-1.33,2.48l-5.6,7.94c-.63-.27-1.49-.66-2.58-1.19-1.09-.52-2.32-1.28-3.71-2.25-.87-.61-1.61-1.25-2.21-1.9-.6-.65-1.04-1.34-1.3-2.05-.27-.71-.34-1.45-.21-2.2.12-.76.47-1.54,1.05-2.37.55-.78,1.18-1.34,1.89-1.66.7-.32,1.43-.46,2.19-.41.76.05,1.53.24,2.32.58.78.34,1.55.76,2.28,1.28.49.35.92.68,1.27.99.35.31.63.59.82.83l.25-.36c.46-.65.63-1.31.51-1.98-.12-.67-.66-1.35-1.64-2.04-.65-.46-1.32-.86-2.02-1.22-.7-.35-1.34-.6-1.92-.76l1.68-3.42c.27.09.6.21.99.37.39.16.8.35,1.23.56.44.22.89.46,1.35.72.47.26.92.55,1.36.87M377.25,41.29c.38.27.74.51,1.09.73.35.22.65.39.87.5l2.04-2.9c-.13-.14-.34-.34-.62-.59-.28-.25-.55-.47-.81-.65-.36-.25-.71-.47-1.06-.65-.35-.18-.68-.29-1-.34-.32-.05-.63-.02-.91.09-.28.11-.53.32-.75.62-.42.6-.51,1.15-.27,1.67.24.51.71,1.02,1.41,1.51"/>
            <path class="cls-4" d="M399.31,47.7c-.24-.36-.53-.77-.87-1.23-.34-.46-.75-.91-1.23-1.35-.22-.2-.5-.41-.83-.65-.34-.23-.61-.4-.8-.49l-8.44,9.36-3.47-3.13,10.46-11.6c.82.34,1.74.8,2.76,1.37,1.02.57,2.05,1.32,3.09,2.26.19.17.4.38.64.64.24.26.48.53.71.81.23.28.45.56.67.85.21.29.38.56.5.81l-3.16,2.34Z"/>
            <path class="cls-4" d="M408.18,44.97l3.68,2.97-3.62,3.25,3.75,4.18-2.89,2.6-3.75-4.18-4.32,3.87c-.73.66-1.2,1.31-1.41,1.96s.04,1.36.74,2.14c.34.37.72.73,1.14,1.06.43.33.85.61,1.27.82l-2.27,2.92c-.55-.27-1.11-.6-1.7-1-.58-.4-1.21-.98-1.88-1.72-.85-.95-1.43-1.85-1.73-2.7-.3-.85-.39-1.67-.27-2.46.12-.79.45-1.55.97-2.28.52-.73,1.18-1.46,1.97-2.17l10.32-9.26Z"/>
            <path class="cls-4" d="M407.57,63.02c1.2-.84,2.37-1.4,3.53-1.66,1.16-.26,2.24-.31,3.26-.13,1.02.18,1.96.55,2.81,1.11.85.56,1.57,1.25,2.15,2.07,1.35,1.91,1.83,3.84,1.44,5.77-.39,1.94-1.72,3.7-3.99,5.31-.22.16-.47.32-.75.49-.28.17-.53.32-.74.45l-6.1-8.67c-.73.64-1.09,1.45-1.1,2.42,0,.97.38,2.01,1.15,3.1.49.7,1.04,1.34,1.65,1.93.6.59,1.15,1.03,1.64,1.32l-2.74,2.7c-.25-.13-.54-.33-.88-.6-.34-.27-.7-.59-1.07-.95-.37-.36-.75-.77-1.14-1.21-.39-.44-.75-.9-1.09-1.38-.85-1.21-1.42-2.39-1.69-3.55-.27-1.15-.31-2.24-.1-3.27.21-1.03.64-1.99,1.3-2.87.66-.88,1.48-1.67,2.47-2.37M415.35,70.97c.31-.25.59-.52.83-.83.24-.31.41-.65.51-1.01.1-.37.12-.75.06-1.16-.06-.41-.24-.83-.55-1.28-.3-.43-.63-.74-.99-.95-.36-.21-.73-.33-1.12-.36-.39-.04-.77,0-1.17.11-.4.11-.77.26-1.13.43l3.56,5.05Z"/>
          </g>
          <g>
            <path class="cls-3" d="M21.43,211.54c1.4,0,2.67.15,3.79.45,1.12.3,2.08.73,2.85,1.3.78.57,1.38,1.26,1.8,2.09s.63,1.75.63,2.77c0,1.67-.32,3.08-.97,4.24s-1.54,2.09-2.67,2.8c-1.14.71-2.47,1.22-4.01,1.54-1.54.31-3.21.47-5.01.47h-1.3l-1.87,7.75h-5.18l5.44-22.8c1.2-.22,2.34-.38,3.42-.47,1.08-.09,2.1-.13,3.06-.13ZM21,215.92c-.38,0-.7.01-.97.03-.27.02-.53.04-.8.07l-1.6,6.81h1.3c.93,0,1.79-.07,2.55-.22.77-.14,1.42-.38,1.97-.72s.97-.76,1.27-1.29c.3-.52.45-1.16.45-1.92,0-1-.36-1.71-1.09-2.14-.72-.42-1.75-.63-3.09-.63Z"/>
            <path class="cls-3" d="M46.81,227.37c-.31,1.27-.4,2.54-.27,3.82.13,1.28.39,2.42.77,3.42l-4.44.63c-.13-.27-.26-.52-.37-.77-.11-.24-.22-.52-.33-.83-.62.51-1.31.93-2.07,1.27-.76.33-1.6.5-2.54.5-1.11,0-2.06-.19-2.85-.58-.79-.39-1.44-.91-1.94-1.57s-.86-1.42-1.08-2.3c-.22-.88-.33-1.82-.33-2.82,0-1.54.27-2.98.82-4.34.55-1.36,1.3-2.54,2.27-3.56.97-1.01,2.11-1.81,3.42-2.39,1.31-.58,2.74-.87,4.27-.87.2,0,.55.01,1.05.03.5.02,1.07.07,1.72.15.65.08,1.32.21,2.04.38s1.39.42,2.04.73l-2.17,9.08ZM43.33,221.23c-.29-.04-.55-.08-.78-.1-.23-.02-.52-.03-.85-.03-.76,0-1.46.19-2.12.57-.66.38-1.23.87-1.72,1.49-.49.61-.87,1.32-1.15,2.12-.28.8-.42,1.63-.42,2.5,0,1.07.18,1.91.53,2.54s1.01.94,1.97.94c.51,0,.97-.1,1.39-.3.41-.2.85-.54,1.32-1,.04-.56.12-1.14.22-1.75s.21-1.17.32-1.69l1.3-5.28Z"/>
            <path class="cls-3" d="M54.02,218.19c.38-.11.8-.24,1.25-.38.46-.14.97-.28,1.54-.4.57-.12,1.2-.22,1.9-.3s1.5-.12,2.39-.12c2.63,0,4.43.76,5.41,2.27.98,1.51,1.15,3.58.5,6.21l-2.27,9.48h-4.98l2.2-9.28c.13-.58.24-1.14.32-1.69.08-.54.07-1.02-.02-1.44-.09-.41-.29-.75-.62-1-.32-.25-.82-.38-1.49-.38s-1.3.07-1.97.2l-3.24,13.59h-4.97l4.04-16.76ZM63.87,214.68c-.42,0-.8-.06-1.14-.18s-.65-.25-.94-.4c-.29-.14-.57-.28-.83-.4-.27-.12-.53-.18-.8-.18-.31,0-.6.09-.85.27-.26.18-.57.55-.95,1.1l-2.24-1.37c.51-1.2,1.12-2.1,1.84-2.69s1.58-.88,2.6-.88c.42,0,.8.06,1.14.18.33.12.65.26.94.4.29.15.57.28.83.4s.53.18.8.18c.31,0,.6-.09.85-.27.26-.18.57-.55.95-1.1l2.24,1.37c-.51,1.2-1.12,2.1-1.84,2.69-.71.59-1.58.88-2.6.88Z"/>
            <path class="cls-3" d="M85.37,227.37c-.31,1.27-.4,2.54-.27,3.82.13,1.28.39,2.42.77,3.42l-4.44.63c-.13-.27-.26-.52-.37-.77-.11-.24-.22-.52-.33-.83-.62.51-1.31.93-2.07,1.27-.76.33-1.6.5-2.54.5-1.11,0-2.06-.19-2.85-.58-.79-.39-1.44-.91-1.94-1.57s-.86-1.42-1.08-2.3c-.22-.88-.33-1.82-.33-2.82,0-1.54.27-2.98.82-4.34.55-1.36,1.3-2.54,2.27-3.56.97-1.01,2.11-1.81,3.42-2.39,1.31-.58,2.74-.87,4.27-.87.2,0,.55.01,1.05.03.5.02,1.07.07,1.72.15.65.08,1.32.21,2.04.38s1.39.42,2.04.73l-2.17,9.08ZM81.9,221.23c-.29-.04-.55-.08-.78-.1-.23-.02-.52-.03-.85-.03-.76,0-1.46.19-2.12.57-.66.38-1.23.87-1.72,1.49-.49.61-.87,1.32-1.15,2.12-.28.8-.42,1.63-.42,2.5,0,1.07.18,1.91.53,2.54s1.01.94,1.97.94c.51,0,.97-.1,1.39-.3.41-.2.85-.54,1.32-1,.04-.56.12-1.14.22-1.75s.21-1.17.32-1.69l1.3-5.28Z"/>
            <path class="cls-3" d="M95.82,235.28c-1.58,0-2.82-.21-3.72-.62s-1.55-.97-1.94-1.69c-.39-.71-.58-1.53-.57-2.46.01-.92.14-1.91.38-2.96l4.24-17.73,5.18-.8-4.64,19.23c-.09.4-.14.77-.15,1.1-.01.33.05.63.18.88.13.26.36.46.68.62.32.16.77.26,1.35.3l-1,4.11Z"/>
            <path class="cls-3" d="M100.06,228.07c0-1.42.25-2.8.75-4.14.5-1.34,1.21-2.52,2.12-3.56.91-1.04,2.02-1.87,3.32-2.5,1.3-.63,2.74-.95,4.32-.95.78,0,1.5.11,2.17.33.67.22,1.25.54,1.75.97.5.42.89.94,1.17,1.55.28.61.42,1.31.42,2.09,0,1.25-.28,2.3-.83,3.17-.56.87-1.33,1.58-2.32,2.12-.99.55-2.17.94-3.52,1.19-1.36.25-2.84.37-4.44.37.16.93.5,1.6,1.02,1.99.52.39,1.35.58,2.49.58.71,0,1.44-.06,2.17-.18.73-.12,1.42-.31,2.07-.55l.37,3.91c-.62.24-1.42.47-2.39.67-.97.2-2.02.3-3.16.3-1.38,0-2.54-.19-3.49-.58-.95-.39-1.71-.92-2.3-1.59-.59-.67-1.02-1.45-1.29-2.34s-.4-1.84-.4-2.84ZM109.78,220.86c-1.14,0-2.13.41-2.99,1.22-.86.81-1.42,1.89-1.69,3.22,1.38-.04,2.49-.16,3.34-.35.85-.19,1.5-.42,1.97-.68.47-.27.78-.56.93-.87s.23-.62.23-.93c0-1.07-.6-1.6-1.8-1.6Z"/>
            <path class="cls-3" d="M122.46,231.41c1.13,0,1.91-.16,2.34-.48.42-.32.63-.67.63-1.05,0-.25-.04-.46-.12-.63-.08-.18-.21-.34-.38-.5-.18-.16-.42-.32-.73-.48-.31-.17-.71-.36-1.2-.58-.56-.25-1.08-.51-1.57-.78-.49-.28-.92-.61-1.29-1-.37-.39-.66-.83-.87-1.34-.21-.5-.32-1.1-.32-1.79,0-1.8.66-3.23,1.99-4.27s3.26-1.57,5.79-1.57c1.2,0,2.27.13,3.21.4.93.27,1.69.56,2.27.87l-1.7,3.71c-.47-.24-1.07-.48-1.8-.7-.73-.22-1.46-.33-2.17-.33-.31,0-.62.02-.92.05-.3.03-.58.11-.83.22-.26.11-.46.27-.62.47-.16.2-.23.47-.23.8,0,.45.17.78.52,1,.34.22.83.49,1.45.8.87.42,1.59.81,2.17,1.17.58.36,1.04.73,1.39,1.13.34.4.6.86.75,1.37.16.51.23,1.11.23,1.8s-.15,1.41-.45,2.1c-.3.69-.77,1.3-1.42,1.84-.65.53-1.47.97-2.47,1.3s-2.2.5-3.61.5c-.87,0-1.65-.06-2.35-.17s-1.32-.25-1.85-.42-.98-.34-1.35-.52-.65-.32-.85-.43l1.7-3.81c.38.22.97.5,1.77.83.8.33,1.77.5,2.9.5Z"/>
            <path class="cls-3" d="M148.14,235.42c-1.11,0-2.06-.19-2.85-.57-.79-.38-1.44-.9-1.94-1.55-.5-.66-.87-1.42-1.1-2.3-.23-.88-.35-1.82-.35-2.82,0-1.51.27-2.94.82-4.29.55-1.35,1.3-2.52,2.25-3.52.96-1,2.09-1.79,3.41-2.37,1.31-.58,2.75-.87,4.31-.87.4,0,.77.02,1.12.07s.7.11,1.05.2l1.8-7.54,5.18-.8-4.41,18.33c-.31,1.27-.4,2.54-.27,3.82.13,1.28.39,2.42.77,3.42l-4.44.63c-.13-.27-.26-.52-.37-.77-.11-.24-.22-.52-.33-.83-.62.51-1.32.93-2.09,1.27s-1.62.5-2.55.5ZM153.88,221.36c-.13-.02-.25-.04-.35-.07-.1-.02-.2-.04-.3-.05s-.23-.02-.38-.02h-.6c-.78,0-1.5.18-2.17.55s-1.24.86-1.72,1.49-.85,1.33-1.12,2.12-.4,1.6-.4,2.42c0,1.07.18,1.91.55,2.52.37.61,1.03.92,1.99.92.51,0,.98-.1,1.4-.3.42-.2.87-.54,1.34-1,.04-.56.12-1.14.22-1.75s.21-1.17.32-1.69l1.24-5.14Z"/>
            <path class="cls-3" d="M161.59,228.07c0-1.42.25-2.8.75-4.14.5-1.34,1.21-2.52,2.12-3.56.91-1.04,2.02-1.87,3.32-2.5,1.3-.63,2.74-.95,4.32-.95.78,0,1.5.11,2.17.33.67.22,1.25.54,1.75.97.5.42.89.94,1.17,1.55.28.61.42,1.31.42,2.09,0,1.25-.28,2.3-.83,3.17-.56.87-1.33,1.58-2.32,2.12-.99.55-2.17.94-3.52,1.19-1.36.25-2.84.37-4.44.37.16.93.5,1.6,1.02,1.99.52.39,1.35.58,2.49.58.71,0,1.44-.06,2.17-.18.73-.12,1.42-.31,2.07-.55l.37,3.91c-.62.24-1.42.47-2.39.67-.97.2-2.02.3-3.16.3-1.38,0-2.54-.19-3.49-.58-.95-.39-1.71-.92-2.3-1.59-.59-.67-1.02-1.45-1.29-2.34s-.4-1.84-.4-2.84ZM171.31,220.86c-1.14,0-2.13.41-2.99,1.22-.86.81-1.42,1.89-1.69,3.22,1.38-.04,2.49-.16,3.34-.35.85-.19,1.5-.42,1.97-.68.47-.27.78-.56.93-.87s.23-.62.23-.93c0-1.07-.6-1.6-1.8-1.6Z"/>
            <path class="cls-3" d="M184,231.41c1.13,0,1.91-.16,2.34-.48.42-.32.63-.67.63-1.05,0-.25-.04-.46-.12-.63-.08-.18-.21-.34-.38-.5-.18-.16-.42-.32-.73-.48-.31-.17-.71-.36-1.2-.58-.56-.25-1.08-.51-1.57-.78-.49-.28-.92-.61-1.29-1-.37-.39-.66-.83-.87-1.34-.21-.5-.32-1.1-.32-1.79,0-1.8.66-3.23,1.99-4.27s3.26-1.57,5.79-1.57c1.2,0,2.27.13,3.21.4.93.27,1.69.56,2.27.87l-1.7,3.71c-.47-.24-1.07-.48-1.8-.7-.73-.22-1.46-.33-2.17-.33-.31,0-.62.02-.92.05-.3.03-.58.11-.83.22-.26.11-.46.27-.62.47-.16.2-.23.47-.23.8,0,.45.17.78.52,1,.34.22.83.49,1.45.8.87.42,1.59.81,2.17,1.17.58.36,1.04.73,1.39,1.13.34.4.6.86.75,1.37.16.51.23,1.11.23,1.8s-.15,1.41-.45,2.1c-.3.69-.77,1.3-1.42,1.84-.65.53-1.47.97-2.47,1.3s-2.2.5-3.61.5c-.87,0-1.65-.06-2.35-.17s-1.32-.25-1.85-.42-.98-.34-1.35-.52-.65-.32-.85-.43l1.7-3.81c.38.22.97.5,1.77.83.8.33,1.77.5,2.9.5Z"/>
            <path class="cls-3" d="M195.42,228.07c0-1.42.25-2.8.75-4.14.5-1.34,1.21-2.52,2.12-3.56.91-1.04,2.02-1.87,3.32-2.5s2.74-.95,4.32-.95c.78,0,1.5.11,2.17.33s1.25.54,1.75.97c.5.42.89.94,1.17,1.55.28.61.42,1.31.42,2.09,0,1.25-.28,2.3-.83,3.17s-1.33,1.58-2.32,2.12c-.99.55-2.17.94-3.52,1.19s-2.84.37-4.44.37c.15.93.49,1.6,1.02,1.99.52.39,1.35.58,2.49.58.71,0,1.44-.06,2.17-.18.73-.12,1.42-.31,2.07-.55l.37,3.91c-.62.24-1.42.47-2.39.67-.97.2-2.02.3-3.15.3-1.38,0-2.54-.19-3.49-.58-.95-.39-1.71-.92-2.3-1.59-.59-.67-1.02-1.45-1.29-2.34s-.4-1.84-.4-2.84ZM205.13,220.86c-1.13,0-2.13.41-2.99,1.22-.86.81-1.42,1.89-1.69,3.22,1.38-.04,2.49-.16,3.34-.35.85-.19,1.5-.42,1.97-.68.47-.27.78-.56.94-.87.15-.31.23-.62.23-.93,0-1.07-.6-1.6-1.8-1.6Z"/>
            <path class="cls-3" d="M213.11,227.94c0-1.51.25-2.94.73-4.27s1.19-2.5,2.1-3.51c.91-1,2.02-1.79,3.32-2.37s2.75-.87,4.36-.87c1,0,1.9.09,2.69.28.79.19,1.51.44,2.15.75l-1.7,3.87c-.45-.18-.91-.34-1.39-.48-.48-.14-1.06-.22-1.75-.22-1.67,0-2.98.56-3.94,1.69-.96,1.12-1.44,2.65-1.44,4.59,0,1.13.25,2.05.73,2.75.49.7,1.39,1.05,2.71,1.05.65,0,1.27-.07,1.87-.2.6-.13,1.14-.3,1.6-.5l.37,3.97c-.62.25-1.31.46-2.05.65-.75.19-1.65.28-2.72.28-1.38,0-2.55-.2-3.5-.6-.96-.4-1.75-.94-2.37-1.62-.62-.68-1.07-1.47-1.35-2.39s-.42-1.87-.42-2.87Z"/>
            <path class="cls-3" d="M239.99,217.09c.96,0,1.78.14,2.47.42.69.28,1.26.67,1.7,1.17s.78,1.1,1,1.79c.22.69.33,1.44.33,2.24,0,.93-.11,1.86-.33,2.77l-2.27,9.48h-4.97l2.2-9.28c.09-.38.17-.78.25-1.2s.12-.82.12-1.2c0-.58-.15-1.07-.45-1.49-.3-.41-.87-.62-1.72-.62-.36,0-.7.02-1.02.07-.32.04-.64.1-.95.17l-3.24,13.55h-4.98l6.01-25.11,5.18-.8-2.04,8.38c.45-.09.9-.17,1.35-.23.46-.07.91-.1,1.35-.1Z"/>
            <path class="cls-3" d="M263.46,227.37c-.31,1.27-.4,2.54-.27,3.82.13,1.28.39,2.42.77,3.42l-4.44.63c-.13-.27-.26-.52-.37-.77-.11-.24-.22-.52-.33-.83-.62.51-1.31.93-2.07,1.27-.76.33-1.6.5-2.54.5-1.11,0-2.06-.19-2.85-.58s-1.44-.91-1.94-1.57-.86-1.42-1.08-2.3c-.22-.88-.33-1.82-.33-2.82,0-1.54.27-2.98.82-4.34.54-1.36,1.3-2.54,2.27-3.56.97-1.01,2.11-1.81,3.42-2.39,1.31-.58,2.74-.87,4.27-.87.2,0,.55.01,1.05.03.5.02,1.07.07,1.72.15.65.08,1.32.21,2.04.38.71.18,1.39.42,2.04.73l-2.17,9.08ZM259.99,221.23c-.29-.04-.55-.08-.78-.1-.23-.02-.52-.03-.85-.03-.76,0-1.46.19-2.12.57-.66.38-1.23.87-1.72,1.49-.49.61-.87,1.32-1.15,2.12-.28.8-.42,1.63-.42,2.5,0,1.07.18,1.91.53,2.54.36.62,1.01.94,1.97.94.51,0,.97-.1,1.39-.3.41-.2.85-.54,1.32-1,.04-.56.12-1.14.22-1.75s.21-1.17.32-1.69l1.3-5.28Z"/>
            <path class="cls-3" d="M278.29,217.02c1.07,0,1.99.19,2.77.57s1.42.89,1.94,1.54c.51.65.89,1.4,1.14,2.27.24.87.37,1.8.37,2.8,0,1.54-.28,2.99-.85,4.36-.57,1.37-1.34,2.56-2.32,3.57-.98,1.01-2.14,1.81-3.47,2.4-1.33.59-2.78.88-4.34.88-.2,0-.55,0-1.05-.02-.5-.01-1.07-.06-1.72-.15-.65-.09-1.33-.22-2.05-.4-.72-.18-1.41-.42-2.05-.73l5.78-24.27,5.18-.8-2.07,8.61c.45-.2.89-.36,1.33-.47s.92-.17,1.44-.17ZM273.95,231.31c.78,0,1.51-.19,2.2-.57.69-.38,1.29-.88,1.79-1.52.5-.63.9-1.35,1.18-2.15.29-.8.43-1.64.43-2.5,0-1.07-.18-1.9-.53-2.5-.36-.6-1.01-.9-1.97-.9-.31,0-.72.06-1.22.17-.5.11-.95.34-1.35.7l-2.2,9.15c.13.02.25.04.35.07.1.02.21.04.32.05.11.01.25.02.4.02h.6Z"/>
            <path class="cls-3" d="M293.11,235.28c-1.58,0-2.82-.21-3.72-.62-.9-.41-1.55-.97-1.94-1.69-.39-.71-.58-1.53-.57-2.46.01-.92.14-1.91.38-2.96l4.24-17.73,5.17-.8-4.64,19.23c-.09.4-.14.77-.15,1.1-.01.33.05.63.18.88s.36.46.68.62c.32.16.77.26,1.35.3l-1,4.11Z"/>
            <path class="cls-3" d="M297.35,228.07c0-1.42.25-2.8.75-4.14s1.21-2.52,2.12-3.56,2.02-1.87,3.32-2.5c1.3-.63,2.74-.95,4.32-.95.78,0,1.5.11,2.17.33s1.25.54,1.75.97c.5.42.89.94,1.17,1.55s.42,1.31.42,2.09c0,1.25-.28,2.3-.83,3.17s-1.33,1.58-2.32,2.12c-.99.55-2.17.94-3.52,1.19s-2.84.37-4.44.37c.16.93.5,1.6,1.02,1.99.52.39,1.35.58,2.49.58.71,0,1.44-.06,2.17-.18.73-.12,1.42-.31,2.07-.55l.37,3.91c-.62.24-1.42.47-2.39.67-.97.2-2.02.3-3.15.3-1.38,0-2.54-.19-3.49-.58-.95-.39-1.71-.92-2.3-1.59-.59-.67-1.02-1.45-1.29-2.34-.27-.89-.4-1.84-.4-2.84ZM307.07,220.86c-1.13,0-2.13.41-2.99,1.22s-1.42,1.89-1.69,3.22c1.38-.04,2.49-.16,3.34-.35.85-.19,1.5-.42,1.97-.68.47-.27.78-.56.93-.87.16-.31.23-.62.23-.93,0-1.07-.6-1.6-1.8-1.6Z"/>
            <path class="cls-3" d="M319.75,231.41c1.13,0,1.91-.16,2.34-.48.42-.32.63-.67.63-1.05,0-.25-.04-.46-.12-.63s-.21-.34-.38-.5c-.18-.16-.42-.32-.73-.48-.31-.17-.71-.36-1.2-.58-.56-.25-1.08-.51-1.57-.78-.49-.28-.92-.61-1.29-1-.37-.39-.66-.83-.87-1.34-.21-.5-.32-1.1-.32-1.79,0-1.8.66-3.23,1.99-4.27s3.26-1.57,5.79-1.57c1.2,0,2.27.13,3.21.4.94.27,1.69.56,2.27.87l-1.7,3.71c-.47-.24-1.07-.48-1.8-.7s-1.46-.33-2.17-.33c-.31,0-.62.02-.92.05-.3.03-.58.11-.83.22s-.46.27-.62.47c-.16.2-.23.47-.23.8,0,.45.17.78.52,1,.34.22.83.49,1.45.8.87.42,1.59.81,2.17,1.17.58.36,1.04.73,1.39,1.13.34.4.59.86.75,1.37.16.51.23,1.11.23,1.8s-.15,1.41-.45,2.1c-.3.69-.77,1.3-1.42,1.84-.65.53-1.47.97-2.47,1.3-1,.33-2.2.5-3.61.5-.87,0-1.65-.06-2.35-.17s-1.32-.25-1.85-.42-.99-.34-1.35-.52-.65-.32-.85-.43l1.7-3.81c.38.22.97.5,1.77.83.8.33,1.77.5,2.91.5Z"/>
            <path class="cls-3" d="M356.15,224.23c0,1.62-.27,3.11-.8,4.46s-1.27,2.51-2.22,3.49c-.95.98-2.08,1.74-3.41,2.29-1.32.55-2.77.82-4.32.82-.76,0-1.51-.07-2.27-.2l-1.5,6.04h-4.94l5.54-23.11c.89-.27,1.91-.51,3.06-.72,1.15-.21,2.39-.32,3.72-.32,1.25,0,2.32.19,3.22.57s1.64.9,2.22,1.55c.58.66,1.01,1.42,1.29,2.3.28.88.42,1.82.42,2.82ZM344.03,231.08c.38.09.85.13,1.4.13.87,0,1.66-.16,2.37-.48.71-.32,1.32-.77,1.82-1.35.5-.58.89-1.27,1.17-2.09s.42-1.71.42-2.69-.21-1.77-.63-2.44c-.42-.67-1.16-1-2.2-1-.71,0-1.38.07-2,.2l-2.34,9.72Z"/>
            <path class="cls-3" d="M373.94,227.37c-.31,1.27-.4,2.54-.27,3.82.13,1.28.39,2.42.77,3.42l-4.44.63c-.13-.27-.26-.52-.37-.77-.11-.24-.22-.52-.33-.83-.62.51-1.31.93-2.07,1.27-.76.33-1.6.5-2.54.5-1.11,0-2.06-.19-2.85-.58s-1.44-.91-1.94-1.57-.86-1.42-1.08-2.3c-.22-.88-.33-1.82-.33-2.82,0-1.54.27-2.98.82-4.34.54-1.36,1.3-2.54,2.27-3.56.97-1.01,2.11-1.81,3.42-2.39,1.31-.58,2.74-.87,4.27-.87.2,0,.55.01,1.05.03.5.02,1.07.07,1.72.15.65.08,1.32.21,2.04.38.71.18,1.39.42,2.04.73l-2.17,9.08ZM370.47,221.23c-.29-.04-.55-.08-.78-.1-.23-.02-.52-.03-.85-.03-.76,0-1.46.19-2.12.57-.66.38-1.23.87-1.72,1.49-.49.61-.87,1.32-1.15,2.12-.28.8-.42,1.63-.42,2.5,0,1.07.18,1.91.53,2.54.36.62,1.01.94,1.97.94.51,0,.97-.1,1.39-.3.41-.2.85-.54,1.32-1,.04-.56.12-1.14.22-1.75s.21-1.17.32-1.69l1.3-5.28Z"/>
            <path class="cls-3" d="M390.54,221.66c-.45-.11-.88-.22-1.32-.32-.43-.1-1.07-.15-1.92-.15-.31,0-.66.03-1.04.08-.38.06-.69.12-.93.18l-3.24,13.49h-4.98l4.01-16.63c.96-.31,2.03-.61,3.22-.88,1.19-.28,2.53-.42,4.02-.42.56,0,1.17.05,1.85.15.68.1,1.27.26,1.79.48l-1.47,4.01Z"/>
            <path class="cls-3" d="M407.27,227.37c-.31,1.27-.4,2.54-.27,3.82.13,1.28.39,2.42.77,3.42l-4.44.63c-.13-.27-.26-.52-.37-.77-.11-.24-.22-.52-.33-.83-.62.51-1.31.93-2.07,1.27-.76.33-1.6.5-2.54.5-1.11,0-2.06-.19-2.85-.58s-1.44-.91-1.94-1.57-.86-1.42-1.08-2.3c-.22-.88-.33-1.82-.33-2.82,0-1.54.27-2.98.82-4.34.54-1.36,1.3-2.54,2.27-3.56.97-1.01,2.11-1.81,3.42-2.39,1.31-.58,2.74-.87,4.27-.87.2,0,.55.01,1.05.03.5.02,1.07.07,1.72.15.65.08,1.32.21,2.04.38.71.18,1.39.42,2.04.73l-2.17,9.08ZM403.79,221.23c-.29-.04-.55-.08-.78-.1-.23-.02-.52-.03-.85-.03-.76,0-1.46.19-2.12.57-.66.38-1.23.87-1.72,1.49-.49.61-.87,1.32-1.15,2.12-.28.8-.42,1.63-.42,2.5,0,1.07.18,1.91.53,2.54.36.62,1.01.94,1.97.94.51,0,.97-.1,1.39-.3.41-.2.85-.54,1.32-1,.04-.56.12-1.14.22-1.75s.21-1.17.32-1.69l1.3-5.28Z"/>
            <path class="cls-3" d="M434.91,227.37c-.31,1.27-.4,2.54-.27,3.82.13,1.28.39,2.42.77,3.42l-4.44.63c-.13-.27-.26-.52-.37-.77-.11-.24-.22-.52-.33-.83-.62.51-1.31.93-2.07,1.27-.76.33-1.6.5-2.54.5-1.11,0-2.06-.19-2.85-.58s-1.44-.91-1.94-1.57-.86-1.42-1.08-2.3c-.22-.88-.33-1.82-.33-2.82,0-1.54.27-2.98.82-4.34.54-1.36,1.3-2.54,2.27-3.56.97-1.01,2.11-1.81,3.42-2.39,1.31-.58,2.74-.87,4.27-.87.2,0,.55.01,1.05.03.5.02,1.07.07,1.72.15.65.08,1.32.21,2.04.38.71.18,1.39.42,2.04.73l-2.17,9.08ZM431.44,221.23c-.29-.04-.55-.08-.78-.1-.23-.02-.52-.03-.85-.03-.76,0-1.46.19-2.12.57-.66.38-1.23.87-1.72,1.49-.49.61-.87,1.32-1.15,2.12-.28.8-.42,1.63-.42,2.5,0,1.07.18,1.91.53,2.54.36.62,1.01.94,1.97.94.51,0,.97-.1,1.39-.3.41-.2.85-.54,1.32-1,.04-.56.12-1.14.22-1.75s.21-1.17.32-1.69l1.3-5.28Z"/>
            <path class="cls-3" d="M445.33,235.42c-1.11,0-2.07-.19-2.86-.57-.79-.38-1.44-.9-1.94-1.55s-.87-1.42-1.1-2.3c-.23-.88-.35-1.82-.35-2.82,0-1.51.27-2.94.82-4.29.54-1.35,1.3-2.52,2.25-3.52.96-1,2.09-1.79,3.41-2.37,1.31-.58,2.75-.87,4.31-.87.4,0,.77.02,1.12.07.34.04.7.11,1.05.2l1.8-7.54,5.17-.8-4.41,18.33c-.31,1.27-.4,2.54-.27,3.82.13,1.28.39,2.42.77,3.42l-4.44.63c-.13-.27-.26-.52-.37-.77-.11-.24-.22-.52-.33-.83-.62.51-1.32.93-2.09,1.27s-1.62.5-2.55.5ZM451.07,221.36c-.13-.02-.25-.04-.35-.07-.1-.02-.2-.04-.3-.05-.1-.01-.23-.02-.38-.02h-.6c-.78,0-1.5.18-2.17.55-.67.37-1.24.86-1.72,1.49-.48.62-.85,1.33-1.12,2.12-.27.79-.4,1.6-.4,2.42,0,1.07.18,1.91.55,2.52s1.03.92,1.99.92c.51,0,.98-.1,1.4-.3.42-.2.87-.54,1.33-1,.04-.56.12-1.14.22-1.75.1-.61.21-1.17.32-1.69l1.24-5.14Z"/>
            <path class="cls-3" d="M476.18,217.39l-2.37,9.98c-.31,1.27-.4,2.54-.27,3.82.13,1.28.39,2.42.77,3.42l-4.44.63c-.25-.49-.48-1.04-.7-1.64-.62.49-1.32.9-2.1,1.24s-1.65.5-2.6.5c-1.31,0-2.38-.24-3.19-.72s-1.42-1.11-1.82-1.9-.62-1.7-.65-2.72c-.03-1.02.08-2.07.35-3.14l2.27-9.48h4.97l-2.24,9.42c-.11.49-.21.99-.28,1.5-.08.51-.08.99-.02,1.42.07.43.24.79.52,1.07s.72.42,1.32.42c.51,0,.99-.09,1.42-.28.43-.19.9-.52,1.39-.98.04-.56.12-1.14.22-1.75.1-.61.21-1.17.32-1.69l2.17-9.12h4.97Z"/>
            <path class="cls-3" d="M481.95,213.01l5.18-.8-1.27,5.17h5.54l-1,4.07h-5.51l-1.47,6.14c-.13.51-.22.99-.25,1.44-.03.45.02.83.17,1.15.14.32.4.57.75.75.36.18.85.27,1.47.27.53,0,1.05-.05,1.55-.15.5-.1,1.01-.24,1.52-.42l.37,3.81c-.67.24-1.39.46-2.17.63-.78.18-1.7.27-2.77.27-1.54,0-2.73-.23-3.57-.68s-1.45-1.08-1.8-1.87c-.36-.79-.51-1.7-.47-2.72s.2-2.1.47-3.24l3.27-13.82Z"/>
            <path class="cls-3" d="M498.52,235.42c-1.18,0-2.2-.18-3.07-.53s-1.59-.86-2.15-1.5c-.57-.65-1-1.41-1.29-2.29s-.43-1.85-.43-2.92c0-1.34.22-2.67.65-4.01.43-1.33,1.07-2.54,1.92-3.61.85-1.07,1.88-1.94,3.1-2.62,1.22-.68,2.63-1.02,4.21-1.02,1.16,0,2.18.18,3.06.53.88.36,1.6.86,2.17,1.5.57.65,1,1.41,1.29,2.29s.43,1.85.43,2.92c0,1.33-.21,2.67-.63,4.01s-1.05,2.54-1.87,3.61-1.85,1.94-3.09,2.62c-1.24.68-2.67,1.02-4.29,1.02ZM500.99,221.13c-.74,0-1.38.21-1.94.63-.56.42-1.02.96-1.4,1.6-.38.65-.66,1.35-.85,2.12-.19.77-.28,1.5-.28,2.19,0,1.14.18,2.01.53,2.62.36.61,1,.92,1.94.92.73,0,1.38-.21,1.94-.63s1.02-.96,1.4-1.6c.38-.64.66-1.35.85-2.12.19-.77.28-1.5.28-2.19,0-1.13-.18-2.01-.53-2.62-.36-.61-1-.92-1.94-.92Z"/>
            <path class="cls-3" d="M515.44,231.41c1.13,0,1.91-.16,2.34-.48.42-.32.63-.67.63-1.05,0-.25-.04-.46-.12-.63s-.21-.34-.38-.5c-.18-.16-.42-.32-.73-.48-.31-.17-.71-.36-1.2-.58-.56-.25-1.08-.51-1.57-.78-.49-.28-.92-.61-1.29-1-.37-.39-.66-.83-.87-1.34-.21-.5-.32-1.1-.32-1.79,0-1.8.66-3.23,1.99-4.27s3.26-1.57,5.79-1.57c1.2,0,2.27.13,3.21.4.94.27,1.69.56,2.27.87l-1.7,3.71c-.47-.24-1.07-.48-1.8-.7s-1.46-.33-2.17-.33c-.31,0-.62.02-.92.05-.3.03-.58.11-.83.22s-.46.27-.62.47c-.16.2-.23.47-.23.8,0,.45.17.78.52,1,.34.22.83.49,1.45.8.87.42,1.59.81,2.17,1.17.58.36,1.04.73,1.39,1.13.34.4.59.86.75,1.37.16.51.23,1.11.23,1.8s-.15,1.41-.45,2.1c-.3.69-.77,1.3-1.42,1.84-.65.53-1.47.97-2.47,1.3-1,.33-2.2.5-3.61.5-.87,0-1.65-.06-2.35-.17s-1.32-.25-1.85-.42-.99-.34-1.35-.52-.65-.32-.85-.43l1.7-3.81c.38.22.97.5,1.77.83.8.33,1.77.5,2.91.5Z"/>
          </g>
        </g>
      </g>
    </g>
  </g>
</svg>